# xmcd CD database file
#
# Track frame offsets:
#	150
#	27706
#	42961
#	53842
#	89723
#	107243
#	120539
#	172031
#	185677
#	198181
#	218116
#	241723
#	268051
#
# Disc length: 4322 seconds
#
# Revision: 0
# Processed by: cddbd v1.5.2PL0 Copyright (c) Steve Scherf et al.
# Submitted via: CDex 1.79
#
DISCID=bf10e00d
DTITLE=Various Artist - BCR Mixtapew 2014
DYEAR=2014
DGENRE=Country
TTITLE0=Jamey Johnson, Twiggy Ramirez and Shooter Jennings - You Are My Sunshine
TTITLE1=Shooter Jennings - She Talks To Rainbows
TTITLE2=Shooter Jennings - Nashville from Afar
TTITLE3=Jayke Orvis - Dirty Ol' Pines
TTITLE4=Last Daze - Heaven Won't Let You In
TTITLE5=James Hunnicut - 'Till Tomorrow
TTITLE6=Ron Jeremy - Understanding and Appreciating Classical Music
TTITLE7=Fenixon - Waymore's Blues
TTITLE8=Wanda Jackson - Funnel of Love
TTITLE9=Fenixon - I Found The Body
TTITLE10=Shooter Jennings - All of This Could Have Been Yours
TTITLE11=Shooter Jennings - I'm Left, You're Right, She's Gone
TTITLE12=Mick Foley - Crazy Christmas
EXTD=YEAR: 2014
EXTT0=
EXTT1=
EXTT2=
EXTT3=
EXTT4=
EXTT5=
EXTT6=
EXTT7=
EXTT8=
EXTT9=
EXTT10=
EXTT11=
EXTT12=
PLAYORDER=
